<svg width="400" height="100" viewBox="0 0 400 100" fill="none" xmlns="http://www.w3.org/2000/svg">
  <!-- Circle Background -->
  <circle cx="50" cy="50" r="45" fill="#009688"/>

  <!-- Pill Bottle Cap -->
  <rect x="35" y="20" width="30" height="10" rx="2" fill="#ffffff"/>
  <g fill="#009688">
    <rect x="38" y="22" width="3" height="6"/>
    <rect x="43" y="22" width="3" height="6"/>
    <rect x="48" y="22" width="3" height="6"/>
    <rect x="53" y="22" width="3" height="6"/>
    <rect x="58" y="22" width="3" height="6"/>
  </g>

  <!-- Pill Bottle Body -->
  <rect x="32" y="30" width="36" height="50" rx="5" fill="#ffffff"/>

  <!-- Label on Bottle -->
  <rect x="36" y="45" width="28" height="20" rx="3" fill="#009688"/>

  <!-- Pill Icon inside Label -->
  <g transform="translate(42,50)">
    <path d="M0 0 a6 6 0 0 1 8 0 l-8 8 a6 6 0 0 1 0 -8 Z" fill="#ffffff"/>
    <path d="M8 0 a6 6 0 0 1 0 8 l-8 -8 a6 6 0 0 1 8 0 Z" fill="#ffffff"/>
  </g>

  <!-- Text: Pill Boss -->
  <text x="100" y="65" font-family="Ubuntu, sans-serif" font-size="40" font-weight="bold" fill="#009688">
    Pill Boss
  </text>
</svg>
